<mxfile host="Electron" agent="Mozilla/5.0 (Windows NT 10.0; Win64; x64) AppleWebKit/537.36 (KHTML, like Gecko) draw.io/24.7.17 Chrome/128.0.6613.36 Electron/32.0.1 Safari/537.36" version="24.7.17">
  <diagram name="Страница — 1" id="FnN3TmrqMWvf5U0QRyU4">
    <mxGraphModel dx="361" dy="605" grid="1" gridSize="10" guides="1" tooltips="1" connect="1" arrows="1" fold="1" page="1" pageScale="1" pageWidth="827" pageHeight="1169" math="0" shadow="0">
      <root>
        <mxCell id="0" />
        <mxCell id="1" parent="0" />
        <mxCell id="MxVB5uM-RIzDyaNLnOSY-3" style="edgeStyle=orthogonalEdgeStyle;rounded=0;orthogonalLoop=1;jettySize=auto;html=1;exitX=0.5;exitY=1;exitDx=0;exitDy=0;entryX=0.5;entryY=0;entryDx=0;entryDy=0;" edge="1" parent="1" source="MxVB5uM-RIzDyaNLnOSY-1" target="MxVB5uM-RIzDyaNLnOSY-2">
          <mxGeometry relative="1" as="geometry">
            <Array as="points">
              <mxPoint x="530" y="90" />
              <mxPoint x="530" y="90" />
            </Array>
          </mxGeometry>
        </mxCell>
        <mxCell id="MxVB5uM-RIzDyaNLnOSY-1" value="Начало" style="ellipse;whiteSpace=wrap;html=1;" vertex="1" parent="1">
          <mxGeometry x="470" y="10" width="120" height="60" as="geometry" />
        </mxCell>
        <mxCell id="MxVB5uM-RIzDyaNLnOSY-9" style="edgeStyle=orthogonalEdgeStyle;rounded=0;orthogonalLoop=1;jettySize=auto;html=1;exitX=0.5;exitY=1;exitDx=0;exitDy=0;entryX=0.5;entryY=0;entryDx=0;entryDy=0;" edge="1" parent="1" source="MxVB5uM-RIzDyaNLnOSY-2" target="MxVB5uM-RIzDyaNLnOSY-8">
          <mxGeometry relative="1" as="geometry" />
        </mxCell>
        <mxCell id="MxVB5uM-RIzDyaNLnOSY-2" value="int n;&lt;div&gt;int sum =0;&lt;/div&gt;" style="rounded=0;whiteSpace=wrap;html=1;" vertex="1" parent="1">
          <mxGeometry x="470" y="110" width="120" height="50" as="geometry" />
        </mxCell>
        <mxCell id="MxVB5uM-RIzDyaNLnOSY-5" style="edgeStyle=orthogonalEdgeStyle;rounded=0;orthogonalLoop=1;jettySize=auto;html=1;exitX=0;exitY=0.5;exitDx=0;exitDy=0;exitPerimeter=0;" edge="1" parent="1" source="MxVB5uM-RIzDyaNLnOSY-4">
          <mxGeometry relative="1" as="geometry">
            <mxPoint x="530" y="80" as="targetPoint" />
          </mxGeometry>
        </mxCell>
        <mxCell id="MxVB5uM-RIzDyaNLnOSY-4" value="{" style="strokeWidth=2;html=1;shape=mxgraph.flowchart.annotation_2;align=left;labelPosition=right;pointerEvents=1;" vertex="1" parent="1">
          <mxGeometry x="580" y="30" width="80" height="100" as="geometry" />
        </mxCell>
        <mxCell id="MxVB5uM-RIzDyaNLnOSY-11" style="edgeStyle=orthogonalEdgeStyle;rounded=0;orthogonalLoop=1;jettySize=auto;html=1;" edge="1" parent="1" source="MxVB5uM-RIzDyaNLnOSY-8">
          <mxGeometry relative="1" as="geometry">
            <mxPoint x="530" y="280" as="targetPoint" />
          </mxGeometry>
        </mxCell>
        <mxCell id="MxVB5uM-RIzDyaNLnOSY-8" value="cin &amp;gt;&amp;gt; n;" style="shape=parallelogram;perimeter=parallelogramPerimeter;whiteSpace=wrap;html=1;fixedSize=1;" vertex="1" parent="1">
          <mxGeometry x="470" y="190" width="120" height="60" as="geometry" />
        </mxCell>
        <mxCell id="MxVB5uM-RIzDyaNLnOSY-35" value="Конец" style="ellipse;whiteSpace=wrap;html=1;" vertex="1" parent="1">
          <mxGeometry x="492.5" y="1040" width="115" height="60" as="geometry" />
        </mxCell>
        <mxCell id="MxVB5uM-RIzDyaNLnOSY-36" value="" style="endArrow=classic;html=1;rounded=0;entryX=0.5;entryY=0;entryDx=0;entryDy=0;" edge="1" parent="1" target="MxVB5uM-RIzDyaNLnOSY-35">
          <mxGeometry width="50" height="50" relative="1" as="geometry">
            <mxPoint x="550" y="930" as="sourcePoint" />
            <mxPoint x="550" y="910" as="targetPoint" />
          </mxGeometry>
        </mxCell>
        <mxCell id="MxVB5uM-RIzDyaNLnOSY-38" style="edgeStyle=orthogonalEdgeStyle;rounded=0;orthogonalLoop=1;jettySize=auto;html=1;exitX=0;exitY=0.5;exitDx=0;exitDy=0;exitPerimeter=0;" edge="1" parent="1" source="MxVB5uM-RIzDyaNLnOSY-37">
          <mxGeometry relative="1" as="geometry">
            <mxPoint x="550" y="990" as="targetPoint" />
          </mxGeometry>
        </mxCell>
        <mxCell id="MxVB5uM-RIzDyaNLnOSY-37" value="" style="strokeWidth=2;html=1;shape=mxgraph.flowchart.annotation_2;align=left;labelPosition=right;pointerEvents=1;" vertex="1" parent="1">
          <mxGeometry x="595" y="940" width="50" height="100" as="geometry" />
        </mxCell>
        <mxCell id="MxVB5uM-RIzDyaNLnOSY-39" value="}" style="text;html=1;align=center;verticalAlign=middle;resizable=0;points=[];autosize=1;strokeColor=none;fillColor=none;" vertex="1" parent="1">
          <mxGeometry x="635" y="968" width="30" height="30" as="geometry" />
        </mxCell>
        <mxCell id="MxVB5uM-RIzDyaNLnOSY-43" style="edgeStyle=orthogonalEdgeStyle;rounded=0;orthogonalLoop=1;jettySize=auto;html=1;exitX=0.5;exitY=1;exitDx=0;exitDy=0;entryX=0.5;entryY=0;entryDx=0;entryDy=0;" edge="1" parent="1" source="MxVB5uM-RIzDyaNLnOSY-41" target="MxVB5uM-RIzDyaNLnOSY-42">
          <mxGeometry relative="1" as="geometry" />
        </mxCell>
        <mxCell id="MxVB5uM-RIzDyaNLnOSY-45" style="edgeStyle=orthogonalEdgeStyle;rounded=0;orthogonalLoop=1;jettySize=auto;html=1;exitX=1;exitY=0.5;exitDx=0;exitDy=0;" edge="1" parent="1" source="MxVB5uM-RIzDyaNLnOSY-41">
          <mxGeometry relative="1" as="geometry">
            <mxPoint x="532" y="570" as="targetPoint" />
            <Array as="points">
              <mxPoint x="640" y="320" />
              <mxPoint x="640" y="500" />
              <mxPoint x="532" y="500" />
            </Array>
          </mxGeometry>
        </mxCell>
        <mxCell id="MxVB5uM-RIzDyaNLnOSY-41" value="while (n&amp;gt;0)" style="rhombus;whiteSpace=wrap;html=1;" vertex="1" parent="1">
          <mxGeometry x="465" y="280" width="130" height="80" as="geometry" />
        </mxCell>
        <mxCell id="MxVB5uM-RIzDyaNLnOSY-44" style="edgeStyle=orthogonalEdgeStyle;rounded=0;orthogonalLoop=1;jettySize=auto;html=1;exitX=0.5;exitY=1;exitDx=0;exitDy=0;" edge="1" parent="1" source="MxVB5uM-RIzDyaNLnOSY-42">
          <mxGeometry relative="1" as="geometry">
            <mxPoint x="530" y="260" as="targetPoint" />
            <Array as="points">
              <mxPoint x="530" y="470" />
              <mxPoint x="431" y="470" />
            </Array>
          </mxGeometry>
        </mxCell>
        <mxCell id="MxVB5uM-RIzDyaNLnOSY-42" value="sum+=n%10;&lt;div&gt;&lt;span style=&quot;background-color: initial;&quot;&gt;n/=10;&lt;/span&gt;&lt;/div&gt;" style="rounded=0;whiteSpace=wrap;html=1;" vertex="1" parent="1">
          <mxGeometry x="470" y="390" width="120" height="60" as="geometry" />
        </mxCell>
        <mxCell id="MxVB5uM-RIzDyaNLnOSY-48" style="edgeStyle=orthogonalEdgeStyle;rounded=0;orthogonalLoop=1;jettySize=auto;html=1;exitX=0.5;exitY=1;exitDx=0;exitDy=0;entryX=0.5;entryY=0;entryDx=0;entryDy=0;" edge="1" parent="1" source="MxVB5uM-RIzDyaNLnOSY-46" target="MxVB5uM-RIzDyaNLnOSY-47">
          <mxGeometry relative="1" as="geometry" />
        </mxCell>
        <mxCell id="MxVB5uM-RIzDyaNLnOSY-46" value="cout &amp;lt;&amp;lt; sum &amp;lt;&amp;lt; endl;" style="shape=parallelogram;perimeter=parallelogramPerimeter;whiteSpace=wrap;html=1;fixedSize=1;" vertex="1" parent="1">
          <mxGeometry x="475" y="570" width="120" height="60" as="geometry" />
        </mxCell>
        <mxCell id="MxVB5uM-RIzDyaNLnOSY-47" value="Конец" style="ellipse;whiteSpace=wrap;html=1;" vertex="1" parent="1">
          <mxGeometry x="475" y="670" width="120" height="60" as="geometry" />
        </mxCell>
        <mxCell id="MxVB5uM-RIzDyaNLnOSY-50" style="edgeStyle=orthogonalEdgeStyle;rounded=0;orthogonalLoop=1;jettySize=auto;html=1;exitX=0;exitY=0.5;exitDx=0;exitDy=0;exitPerimeter=0;" edge="1" parent="1" source="MxVB5uM-RIzDyaNLnOSY-49">
          <mxGeometry relative="1" as="geometry">
            <mxPoint x="540" y="650" as="targetPoint" />
          </mxGeometry>
        </mxCell>
        <mxCell id="MxVB5uM-RIzDyaNLnOSY-49" value="" style="strokeWidth=2;html=1;shape=mxgraph.flowchart.annotation_2;align=left;labelPosition=right;pointerEvents=1;" vertex="1" parent="1">
          <mxGeometry x="595" y="600" width="50" height="100" as="geometry" />
        </mxCell>
        <mxCell id="MxVB5uM-RIzDyaNLnOSY-51" value="}" style="text;html=1;align=center;verticalAlign=middle;resizable=0;points=[];autosize=1;strokeColor=none;fillColor=none;" vertex="1" parent="1">
          <mxGeometry x="635" y="635" width="30" height="30" as="geometry" />
        </mxCell>
      </root>
    </mxGraphModel>
  </diagram>
</mxfile>
